<svg xmlns="http://www.w3.org/2000/svg" version="1.1" xmlns:xlink="http://www.w3.org/1999/xlink" xmlns:svgjs="http://svgjs.dev/svgjs" width="1000" height="1199" viewBox="0 0 1000 1199"><g transform="matrix(1,0,0,1,0.7971527774093374,0.4854286149449081)"><svg viewBox="0 0 206 247" data-background-color="#ffffff" preserveAspectRatio="xMidYMid meet" height="1199" width="1000" xmlns="http://www.w3.org/2000/svg" xmlns:xlink="http://www.w3.org/1999/xlink"><g id="tight-bounds" transform="matrix(1,0,0,1,-0.16421346481087085,-0.10000072384602277)"><svg viewBox="0 0 206.3284234389238 247.2" height="247.2" width="206.3284234389238"><g><svg viewBox="0 0 395.52 473.86851685483884" height="247.2" width="206.3284234389238"><g transform="matrix(1,0,0,1,0,270.3455548727474)"><svg viewBox="0 0 395.52 203.52296198209143" height="203.52296198209143" width="395.52"><g id="textblocktransform"><svg viewBox="0 0 395.52 203.52296198209143" height="203.52296198209143" width="395.52" id="textblock"><g><svg viewBox="0 0 395.52 109.77056063618288" height="109.77056063618288" width="395.52"><g transform="matrix(1,0,0,1,0,0)"><svg width="395.52" viewBox="0.05000000447034836 -34.5 125.73999786376953 34.900001525878906" height="109.77056063618288" data-palette-color="#000000"><path d="M15.1-21.15L15.85-21.15Q16.15-22.35 17.65-25.15L17.65-25.15 19.55-28.75Q17.8-29.5 17.1-30.35L17.1-30.35 17.6-34.5 29-34.5 29.5-30.35Q28.6-29.25 26.15-28.45L26.15-28.45 19.65-17.95 26.4-5.9Q28.6-5.15 29.45-4.15L29.45-4.15 28.95 0 17.25 0 16.75-4.15Q17.35-4.85 18.85-5.55L18.85-5.55 16.55-10.45Q15.3-13 14.9-14.55L14.9-14.55 14.75-15.1 14-15.1Q13.55-13.4 12.2-10.55L12.2-10.55 9.95-5.75Q11.75-4.95 12.45-4.15L12.45-4.15 11.95 0 0.55 0 0.05-4.15Q0.95-5.25 3.4-6.05L3.4-6.05 10.2-18 3.7-28.55Q1.35-29.35 0.6-30.35L0.6-30.35 1.1-34.5 12.8-34.5 13.3-30.35Q12.65-29.55 11.3-29L11.3-29 13.3-25.25Q14.6-22.75 15.1-21.15L15.1-21.15ZM35.75-17.4L31.9-17.9Q31.35-20.4 31.35-22.23 31.35-24.05 31.4-25L31.4-25 51.65-25 52.15-20.8 42.4-8.35Q41.05-6.55 39.45-5.25L39.45-5.25 39.7-4.7Q41.15-5.15 43.75-5.15L43.75-5.15 46.5-5.15Q47.25-6.95 48.15-7.8L48.15-7.8 52-7.3Q52.55-4.8 52.55-2.9 52.55-1 52.5 0L52.5 0 31.35 0 30.85-4.1 40.65-16.7Q42-18.5 43.6-19.8L43.6-19.8 43.35-20.35Q41.9-19.9 39.3-19.9L39.3-19.9 37.35-19.9Q36.6-18.2 35.75-17.4L35.75-17.4ZM67.05 0.4L67.05 0.4Q61.05 0.4 58.02-2.8 55-6 55-12.1L55-12.1Q55-15.8 56.05-18.48 57.1-21.15 58.9-22.6L58.9-22.6Q62.4-25.4 67.05-25.4 71.7-25.4 74.17-23.03 76.65-20.65 76.65-14.5L76.65-14.5Q76.65-10.9 73.09-10.9L73.09-10.9 62.25-10.9Q62.45-7.75 63.87-6.45 65.3-5.15 68.4-5.15L68.4-5.15Q70.09-5.15 71.65-5.55 73.2-5.95 73.9-6.35L73.9-6.35 74.59-6.75 76.09-2.75Q75.8-2.4 75.22-1.88 74.65-1.35 72.32-0.48 70 0.4 67.05 0.4ZM62.3-15.05L70.2-15.35Q70.3-16.05 70.3-17.05 70.3-18.05 69.5-19.18 68.7-20.3 66.72-20.3 64.75-20.3 63.7-19.1 62.65-17.9 62.3-15.05L62.3-15.05ZM79.19-21.15L79.69-25Q82.44-25.6 84.64-25.6 86.84-25.6 88.29-25.5L88.29-25.5 88.29-23Q89.54-24.05 91.62-24.73 93.69-25.4 95.59-25.4L95.59-25.4Q100.49-25.4 102.47-23.1 104.44-20.8 104.44-15.15L104.44-15.15 104.44-5.55Q106.39-4.8 107.19-3.85L107.19-3.85 106.69 0 95.19 0 94.69-3.85Q95.39-4.8 97.44-5.55L97.44-5.55 97.44-15.45Q97.44-18.15 96.57-19.07 95.69-20 93.44-20 91.19-20 88.94-18.4L88.94-18.4 88.94-5.55Q90.89-4.8 91.69-3.85L91.69-3.85 91.19 0 79.69 0 79.19-3.85Q79.89-4.8 81.94-5.55L81.94-5.55 81.94-19.45Q80.19-20.05 79.19-21.15L79.19-21.15ZM114.39-31.3L118.04-31.3 118.04-25 125.19-25 125.19-20.8 118.04-20.8 118.04-8.15Q118.04-6.55 118.49-5.83 118.94-5.1 120.64-5.1 122.34-5.1 124.29-5.85L124.29-5.85 125.79-1.95Q121.94 0 117.92 0 113.89 0 112.47-1.73 111.04-3.45 111.04-6.75L111.04-6.75 111.04-20.8 108.79-20.8 108.24-23.85Q109.04-24.8 111.54-25.75L111.54-25.75Q112.14-29.85 114.39-31.3L114.39-31.3Z" opacity="1" transform="matrix(1,0,0,1,0,0)" fill="#000000" class="wordmark-text-0" data-fill-palette-color="primary" id="text-0"></path></svg></g></svg></g><g transform="matrix(1,0,0,1,0,135.68475550893038)"><svg viewBox="0 0 395.52 67.83820647316102" height="67.83820647316102" width="395.52"><g transform="matrix(1,0,0,1,0,0)"><svg width="395.52" viewBox="0 -36.70000076293945 217.47000122070312 37.29999923706055" height="67.83820647316102" data-palette-color="#89939e"><path d="M18.4-6.75L18.4-6.75Q18.4-3.65 15.53-1.53 12.65 0.6 8.8 0.6 4.95 0.6 2.48-0.7 0-2 0-3.18 0-4.35 1.53-6.18 3.05-8 4.65-8.3L4.65-8.3Q6.95-7.05 8.8-2.75L8.8-2.75Q10.25-2.75 10.25-3.7L10.25-3.7Q10.25-4.4 9.85-5 9.45-5.6 9.25-5.95 9.05-6.3 8.55-6.93 8.05-7.55 7.8-7.85L7.8-7.85Q6.55-9.35 5.55-10.6L5.55-10.6Q3.15-13.6 3.15-15.88 3.15-18.15 4.6-19.6L4.6-19.6Q7.1-22.15 11.95-22.15L11.95-22.15Q15-22.15 16.8-20.98 18.6-19.8 18.6-17.48 18.6-15.15 15.85-12.15L15.85-12.15Q18.4-9.2 18.4-6.75ZM15.05-15.93Q15.65-16.85 15.65-17.6 15.65-18.35 15-18.75 14.35-19.15 13.45-19.15 12.55-19.15 12.08-18.73 11.6-18.3 11.6-17.6 11.6-16.9 13.75-14.5L13.75-14.5Q14.45-15 15.05-15.93ZM32.83 0.6L32.83 0.6Q28.93 0.6 26.68-1.88 24.43-4.35 24.43-8.85L24.43-8.85Q24.43-14.35 27.68-18.18 30.93-22 36.23-22L36.23-22 38.48-21.8Q39.68-22.15 40.73-22.15L40.73-22.15Q43.23-22.15 44.31-20.45 45.38-18.75 45.53-15.6L45.53-15.6Q47.63-15.7 49.53-16.25L49.53-16.25 50.23-16.45Q50.58-16.1 50.73-14.35L50.73-14.35 50.78-13.8Q48.53-12.65 45.28-12L45.28-12Q44.18-6.7 40.93-3.05 37.68 0.6 32.83 0.6ZM33.83-9.05L33.83-9.05Q33.83-4.4 36.18-4.4L36.18-4.4Q37.83-4.4 39.56-6.5 41.28-8.6 41.93-11.6L41.93-11.6Q36.83-11.6 36.83-16.5L36.83-16.5Q36.83-17.35 36.98-18.25L36.98-18.25Q36.48-18.25 36.23-18.1L36.23-18.1Q35.38-17.2 34.61-14.48 33.83-11.75 33.83-9.05ZM64.92-2.8Q63.32-1.4 60.72-0.4 58.12 0.6 55.99 0.6 53.87 0.6 52.52-0.63 51.17-1.85 51.17-4.15 51.17-6.45 53.69-16.98 56.22-27.5 56.22-32.6L56.22-32.6Q56.22-33.7 55.92-35.4L55.92-35.4Q60.62-36.7 65.02-36.7L65.02-36.7Q65.47-35.9 65.47-34.1L65.47-34.1Q65.47-30.7 62.94-19.28 60.42-7.85 60.42-6.1 60.42-4.35 61.02-4.35L61.02-4.35Q61.52-4.35 63.17-5L63.17-5 63.72-5.25 64.92-2.8ZM70.7-4.05Q70.7-6.15 72.03-10.95 73.35-15.75 73.35-16.85 73.35-17.95 71.55-20.05L71.55-20.05 71.65-20.8Q76.2-21.8 82.3-21.8L82.3-21.8Q82.7-20.95 82.7-19.1 82.7-17.25 81.33-12.1 79.95-6.95 79.95-6L79.95-6Q79.95-4.7 81.2-4.7L81.2-4.7Q82.05-4.7 83.35-5.35L83.35-5.35Q83.5-6.15 84.25-9.55L84.25-9.55Q86-17.1 86-20.85L86-20.85Q88.3-21.85 93.85-21.85L93.85-21.85 95.2-21.85Q95.2-19.6 93.88-13.05 92.55-6.5 92.53-5.5 92.5-4.5 92.95-4.5L92.95-4.5 95.4-5.15 96.3-2.65Q94.85-1.5 92.1-0.45 89.35 0.6 87.25 0.6L87.25 0.6Q84.15 0.6 83.4-1.9L83.4-1.9Q79.25 0.6 75.45 0.6L75.45 0.6Q70.7 0.6 70.7-4.05L70.7-4.05ZM118.84-17.7L118.84-17.7 114.54-18.05Q112.54-9.1 112.36-7.65 112.19-6.2 112.19-5.28 112.19-4.35 112.79-4.35L112.79-4.35Q113.49-4.35 115.44-5.25L115.44-5.25 116.64-2.85Q115.04-1.4 112.59-0.4 110.14 0.6 107.86 0.6 105.59 0.6 104.24-0.58 102.89-1.75 102.89-3.9 102.89-6.05 104.14-10.8 105.39-15.55 105.79-17.85L105.79-17.85Q104.59-17.75 102.24-17.5L102.24-17.5Q102.04-18.55 102.04-19.48 102.04-20.4 102.29-21.55L102.29-21.55 106.29-21.55Q106.34-22.2 106.34-25.9L106.34-25.9 106.24-27.95Q111.09-29.55 115.49-29.55L115.49-29.55Q115.84-28.75 115.84-26.78 115.84-24.8 115.19-21.55L115.19-21.55 119.69-21.55Q119.69-19.5 118.84-17.7ZM134.77-18.78Q134.77-16.55 133.52-11.93 132.27-7.3 132.27-5.9 132.27-4.5 132.82-4.5 133.37-4.5 134.82-5L134.82-5 135.27-5.2 136.17-2.7Q134.47-1.4 131.94-0.4 129.42 0.6 127.37 0.6 125.32 0.6 124.14-0.55 122.97-1.7 122.97-3.88 122.97-6.05 124.19-10.53 125.42-15 125.42-16.2L125.42-16.2Q125.42-18.05 124.12-19.7L124.12-19.7 123.72-20.25 123.87-21.1Q126.47-21.9 133.97-21.9L133.97-21.9Q134.77-21 134.77-18.78ZM131.04-25.8Q128.77-25.8 127.49-27 126.22-28.2 126.22-30.08 126.22-31.95 127.79-33.23 129.37-34.5 131.62-34.5 133.87-34.5 135.12-33.45 136.37-32.4 136.37-30.5 136.37-28.6 134.84-27.2 133.32-25.8 131.04-25.8ZM149.9 0.6L149.9 0.6Q146 0.6 143.75-1.88 141.5-4.35 141.5-8.85L141.5-8.85Q141.5-14.35 144.75-18.18 148-22 153.3-22L153.3-22 155.55-21.8Q156.75-22.15 157.8-22.15L157.8-22.15Q160.3-22.15 161.38-20.45 162.45-18.75 162.6-15.6L162.6-15.6Q164.7-15.7 166.6-16.25L166.6-16.25 167.3-16.45Q167.65-16.1 167.8-14.35L167.8-14.35 167.85-13.8Q165.6-12.65 162.35-12L162.35-12Q161.25-6.7 158-3.05 154.75 0.6 149.9 0.6ZM150.9-9.05L150.9-9.05Q150.9-4.4 153.25-4.4L153.25-4.4Q154.9-4.4 156.63-6.5 158.35-8.6 159-11.6L159-11.6Q153.9-11.6 153.9-16.5L153.9-16.5Q153.9-17.35 154.05-18.25L154.05-18.25Q153.55-18.25 153.3-18.1L153.3-18.1Q152.45-17.2 151.68-14.48 150.9-11.75 150.9-9.05ZM169.59 0.3L169.59 0.3 168.74 0.3Q168.74-2.8 170.16-9.1 171.59-15.4 171.59-16.35 171.59-17.3 171.14-18.2 170.69-19.1 170.24-19.55L170.24-19.55 169.79-20 169.89-20.75Q172.84-21.7 180.19-21.7L180.19-21.7Q180.69-20.55 180.89-19.3L180.89-19.3Q185.44-22.1 188.54-22.1L188.54-22.1Q190.64-22.1 191.84-20.73 193.04-19.35 193.04-17.43 193.04-15.5 191.94-11.25 190.84-7 190.84-5.73 190.84-4.45 191.19-4.45L191.19-4.45 193.84-5.15 194.74-2.65Q193.14-1.45 190.56-0.43 187.99 0.6 185.84 0.6L185.84 0.6Q181.59 0.6 181.59-3.8L181.59-3.8Q181.59-5.7 182.64-10 183.69-14.3 183.69-15.38 183.69-16.45 182.99-16.45L182.99-16.45Q182.09-16.45 180.59-15.45L180.59-15.45Q180.39-14.55 179.59-11.1L179.59-11.1Q177.99-3.85 177.99-0.65L177.99-0.65Q175.54 0.3 169.59 0.3ZM217.27-6.75L217.27-6.75Q217.27-3.65 214.4-1.53 211.52 0.6 207.67 0.6 203.82 0.6 201.35-0.7 198.87-2 198.87-3.18 198.87-4.35 200.4-6.18 201.92-8 203.52-8.3L203.52-8.3Q205.82-7.05 207.67-2.75L207.67-2.75Q209.12-2.75 209.12-3.7L209.12-3.7Q209.12-4.4 208.72-5 208.32-5.6 208.12-5.95 207.92-6.3 207.42-6.93 206.92-7.55 206.67-7.85L206.67-7.85Q205.42-9.35 204.42-10.6L204.42-10.6Q202.02-13.6 202.02-15.88 202.02-18.15 203.47-19.6L203.47-19.6Q205.97-22.15 210.82-22.15L210.82-22.15Q213.87-22.15 215.67-20.98 217.47-19.8 217.47-17.48 217.47-15.15 214.72-12.15L214.72-12.15Q217.27-9.2 217.27-6.75ZM213.92-15.93Q214.52-16.85 214.52-17.6 214.52-18.35 213.87-18.75 213.22-19.15 212.32-19.15 211.42-19.15 210.95-18.73 210.47-18.3 210.47-17.6 210.47-16.9 212.62-14.5L212.62-14.5Q213.32-15 213.92-15.93Z" opacity="1" transform="matrix(1,0,0,1,0,0)" fill="#89939e" class="slogan-text-1" data-fill-palette-color="secondary" id="text-1"></path></svg></g></svg></g></svg></g></svg></g><g transform="matrix(1,0,0,1,75.54432,0)"><svg viewBox="0 0 244.43135999999998 244.43135999999993" height="244.43135999999993" width="244.43135999999998"><g><svg></svg></g><g id="icon-0"><svg viewBox="0 0 244.43135999999998 244.43135999999993" height="244.43135999999993" width="244.43135999999998"><g><path xmlns="http://www.w3.org/2000/svg" d="M73.329 244.431c-40.499 0-73.329-32.831-73.329-73.329v-97.773c0-40.499 32.831-73.329 73.329-73.329h97.773c40.499 0 73.329 32.831 73.329 73.329v97.773c0 40.499-32.831 73.329-73.329 73.329z" fill="#000000" fill-rule="nonzero" stroke="none" stroke-width="1" stroke-linecap="butt" stroke-linejoin="miter" stroke-miterlimit="10" stroke-dasharray="" stroke-dashoffset="0" font-family="none" font-weight="none" font-size="none" text-anchor="none" style="mix-blend-mode: normal" data-fill-palette-color="accent"></path></g><g transform="matrix(1,0,0,1,63.11052924984639,48.88627199999998)"><svg viewBox="0 0 118.21030150030721 146.65881599999997" height="146.65881599999997" width="118.21030150030721"><g><svg xmlns="http://www.w3.org/2000/svg" xmlns:xlink="http://www.w3.org/1999/xlink" version="1.1" x="0" y="0" viewBox="14.131998062133789 5.5 71.73600006103516 89" enable-background="new 0 0 100 100" xml:space="preserve" height="146.65881599999997" width="118.21030150030721" class="icon-s-0" data-fill-palette-color="quaternary" id="s-0"><path d="M50 94.5c-14.216 0-28.511-5.074-28.653-5.125-0.195-0.07-0.35-0.225-0.42-0.418-0.072-0.195-0.054-0.412 0.051-0.592l11.649-20.18c-9.379-1.205-17.834-2.759-17.922-2.773-0.332-0.063-0.573-0.352-0.573-0.689V11.799c0-0.313 0.207-0.587 0.508-0.673C14.837 11.07 34.506 5.5 49.648 5.5c16.359 0 35.525 5.571 35.717 5.627 0.298 0.087 0.503 0.361 0.503 0.671v52.923c0 0.336-0.239 0.625-0.569 0.688-0.088 0.018-8.54 1.616-17.896 2.832l11.619 20.123c0.104 0.18 0.123 0.396 0.052 0.592-0.07 0.192-0.226 0.349-0.421 0.418C78.512 89.426 64.216 94.5 50 94.5zM22.615 88.326c3.173 1.047 15.318 4.775 27.385 4.775 12.072 0 24.213-3.728 27.385-4.775L65.666 68.031c-0.117-0.203-0.125-0.451-0.021-0.66 0.104-0.211 0.308-0.355 0.541-0.385 8.319-1.045 16.147-2.451 18.282-2.844V12.328C81.35 11.457 64.333 6.9 49.648 6.9c-13.599 0-30.946 4.564-34.116 5.431v51.808c2.142 0.383 9.974 1.75 18.313 2.791 0.233 0.028 0.436 0.174 0.541 0.383 0.104 0.209 0.096 0.459-0.021 0.662L22.615 88.326z" fill="#ffffff" data-fill-palette-color="quaternary"></path><path d="M42.959 29.587l-6.299-4.549c-0.264-0.191-0.622-0.176-0.868 0.038l-4.429 3.838c-0.012-0.014-0.015-0.03-0.028-0.042l-1.799-1.8c-0.273-0.273-0.717-0.273-0.99 0-0.273 0.272-0.273 0.716 0 0.99l1.766 1.765-2.156 1.869c-0.011-0.012-0.017-0.029-0.027-0.041l-3.775-3.774c-0.273-0.273-0.716-0.273-0.989 0-0.273 0.273-0.273 0.716 0 0.989l3.739 3.739-1.808 1.566c-0.292 0.253-0.324 0.696-0.07 0.987 0.139 0.16 0.334 0.242 0.527 0.242 0.164 0 0.327-0.056 0.46-0.171l10.079-8.736 5.848 4.225c0.314 0.227 0.752 0.154 0.979-0.157C43.343 30.251 43.273 29.813 42.959 29.587z" fill="#ffffff" data-fill-palette-color="quaternary"></path><path d="M57.041 29.587l6.299-4.549c0.266-0.191 0.623-0.176 0.869 0.038l4.43 3.838c0.012-0.014 0.016-0.03 0.026-0.042l1.802-1.8c0.273-0.273 0.717-0.273 0.99 0 0.271 0.272 0.271 0.716 0 0.99l-1.768 1.765 2.158 1.869c0.01-0.012 0.014-0.029 0.026-0.041l3.772-3.774c0.272-0.273 0.715-0.273 0.988 0s0.273 0.716 0 0.989L72.9 32.608l1.807 1.566c0.292 0.253 0.322 0.696 0.07 0.987-0.139 0.16-0.334 0.242-0.529 0.242-0.162 0-0.325-0.056-0.46-0.171l-10.077-8.736-5.85 4.225c-0.314 0.227-0.75 0.154-0.978-0.157C56.658 30.251 56.729 29.813 57.041 29.587z" fill="#ffffff" data-fill-palette-color="quaternary"></path><circle cx="50.001" cy="20.356" r="2.1" fill="#ffffff" data-fill-palette-color="quaternary"></circle><path d="M51.279 52.551c-8.06 0-15.745-2.725-16.069-2.842-0.363-0.131-0.554-0.531-0.422-0.895 0.13-0.365 0.528-0.551 0.895-0.422 0.077 0.027 7.788 2.758 15.598 2.758 7.85 0 16.585-2.74 16.673-2.769 0.373-0.117 0.763 0.088 0.879 0.455 0.116 0.369-0.088 0.764-0.455 0.879C68.012 49.834 59.344 52.551 51.279 52.551z" fill="#ffffff" data-fill-palette-color="quaternary"></path></svg></g></svg></g></svg></g></svg></g><g></g></svg></g><defs></defs></svg><rect width="206.3284234389238" height="247.2" fill="none" stroke="none" visibility="hidden"></rect></g></svg></g></svg>